<svg width="263" height="34" viewBox="0 0 263 34" fill="none" xmlns="http://www.w3.org/2000/svg">
<path d="M17.2661 20.58L15.8661 16.1C15.3328 14.42 14.8261 12.78 14.3461 11.18C13.8661 9.55333 13.3861 7.88666 12.9061 6.18H12.7461C12.2928 7.91333 11.8261 9.58 11.3461 11.18C10.8661 12.78 10.3594 14.42 9.82609 16.1L8.38609 20.58H17.2661ZM18.1861 23.54H7.46609L4.62609 32.5H0.866094L10.8261 3.18H14.9461L24.9061 32.5H20.9861L18.1861 23.54ZM40.123 33.02C38.3096 33.02 36.6163 32.6867 35.043 32.02C33.4963 31.3267 32.1496 30.3267 31.003 29.02C29.8563 27.7133 28.963 26.1267 28.323 24.26C27.683 22.3667 27.363 20.2333 27.363 17.86C27.363 15.4867 27.683 13.3667 28.323 11.5C28.9896 9.60667 29.8963 8.00667 31.043 6.7C32.2163 5.36666 33.5896 4.35333 35.163 3.66C36.763 2.96667 38.4963 2.62 40.363 2.62C41.243 2.62 42.083 2.72667 42.883 2.94C43.683 3.12666 44.4163 3.39333 45.083 3.74C45.7763 4.08667 46.3896 4.47333 46.923 4.9C47.483 5.32667 47.9763 5.78 48.403 6.26L46.403 8.66C45.6296 7.83333 44.7496 7.16667 43.763 6.66C42.803 6.12667 41.683 5.86 40.403 5.86C39.0163 5.86 37.7496 6.14 36.603 6.7C35.483 7.23333 34.5096 8.02 33.683 9.06C32.883 10.0733 32.2563 11.3133 31.803 12.78C31.3763 14.2467 31.163 15.9 31.163 17.74C31.163 19.58 31.3763 21.2467 31.803 22.74C32.2296 24.2333 32.8296 25.5 33.603 26.54C34.403 27.58 35.363 28.38 36.483 28.94C37.603 29.5 38.8696 29.78 40.283 29.78C41.6963 29.78 42.9496 29.4867 44.043 28.9C45.1363 28.3133 46.1496 27.5133 47.083 26.5L49.123 28.82C47.9496 30.18 46.6296 31.22 45.163 31.94C43.723 32.66 42.043 33.02 40.123 33.02ZM62.9908 33.02C61.5508 33.02 60.1908 32.7667 58.9108 32.26C57.6574 31.7533 56.5641 31.02 55.6308 30.06C54.6974 29.0733 53.9508 27.8733 53.3908 26.46C52.8574 25.0467 52.5908 23.4467 52.5908 21.66C52.5908 19.9 52.8574 18.3133 53.3908 16.9C53.9508 15.4867 54.6841 14.2867 55.5908 13.3C56.4974 12.3133 57.5374 11.5533 58.7108 11.02C59.9108 10.4867 61.1374 10.22 62.3908 10.22C63.7774 10.22 65.0041 10.46 66.0708 10.94C67.1374 11.42 68.0308 12.1133 68.7508 13.02C69.4974 13.9 70.0574 14.9667 70.4308 16.22C70.8308 17.4733 71.0308 18.8733 71.0308 20.42C71.0308 20.82 71.0174 21.2067 70.9908 21.58C70.9641 21.9267 70.9241 22.2333 70.8708 22.5H56.2308C56.3641 24.8467 57.0708 26.7 58.3508 28.06C59.6574 29.42 61.3508 30.1 63.4308 30.1C64.4974 30.1 65.4708 29.9533 66.3508 29.66C67.2308 29.34 68.0708 28.9133 68.8708 28.38L70.1908 30.78C69.2308 31.3933 68.1641 31.9267 66.9908 32.38C65.8174 32.8067 64.4841 33.02 62.9908 33.02ZM67.8308 19.9C67.8308 17.6867 67.3508 16.0067 66.3908 14.86C65.4574 13.7133 64.1374 13.14 62.4308 13.14C61.6574 13.14 60.9108 13.3 60.1908 13.62C59.4974 13.9133 58.8708 14.3533 58.3108 14.94C57.7508 15.5 57.2841 16.2067 56.9108 17.06C56.5374 17.8867 56.2974 18.8333 56.1908 19.9H67.8308ZM76.3792 32.5V0.659997H80.0192V32.5H76.3792ZM87.3167 32.5V0.659997H90.9567V32.5H87.3167ZM107.52 3.18H124.44V6.3H111.24V15.5H122.36V18.66H111.24V29.34H124.88V32.5H107.52V3.18ZM131.035 3.18H135.515L141.155 18.86C141.502 19.8733 141.835 20.9 142.155 21.94C142.502 22.9533 142.862 23.9667 143.235 24.98H143.435C143.782 23.9667 144.115 22.9533 144.435 21.94C144.755 20.9 145.088 19.8733 145.435 18.86L151.035 3.18H155.515V32.5H152.035V16.26C152.035 15.62 152.048 14.94 152.075 14.22C152.102 13.4733 152.142 12.7267 152.195 11.98C152.248 11.2067 152.302 10.4467 152.355 9.7C152.408 8.95333 152.462 8.26 152.515 7.62H152.355L150.035 14.3L144.475 29.54H141.995L136.435 14.3L134.115 7.62H133.955C133.982 8.26 134.022 8.95333 134.075 9.7C134.128 10.4467 134.182 11.2067 134.235 11.98C134.288 12.7267 134.328 13.4733 134.355 14.22C134.382 14.94 134.395 15.62 134.395 16.26V32.5H131.035V3.18ZM163.496 3.18H167.976L173.616 18.86C173.963 19.8733 174.296 20.9 174.616 21.94C174.963 22.9533 175.323 23.9667 175.696 24.98H175.896C176.243 23.9667 176.576 22.9533 176.896 21.94C177.216 20.9 177.549 19.8733 177.896 18.86L183.496 3.18H187.976V32.5H184.496V16.26C184.496 15.62 184.509 14.94 184.536 14.22C184.563 13.4733 184.603 12.7267 184.656 11.98C184.709 11.2067 184.763 10.4467 184.816 9.7C184.869 8.95333 184.923 8.26 184.976 7.62H184.816L182.496 14.3L176.936 29.54H174.456L168.896 14.3L166.576 7.62H166.416C166.443 8.26 166.483 8.95333 166.536 9.7C166.589 10.4467 166.643 11.2067 166.696 11.98C166.749 12.7267 166.789 13.4733 166.816 14.22C166.843 14.94 166.856 15.62 166.856 16.26V32.5H163.496V3.18ZM208.477 20.58L207.077 16.1C206.544 14.42 206.037 12.78 205.557 11.18C205.077 9.55333 204.597 7.88666 204.117 6.18H203.957C203.504 7.91333 203.037 9.58 202.557 11.18C202.077 12.78 201.57 14.42 201.037 16.1L199.597 20.58H208.477ZM209.397 23.54H198.677L195.837 32.5H192.077L202.037 3.18H206.157L216.117 32.5H212.197L209.397 23.54Z" fill="white"/>
<path d="M258.178 0.0351562L244.926 15.7982L239.227 9.87443L231.21 18.264V23.2371L239.227 14.8416L245.08 20.9377L258.944 4.4557V18.4957V19.4226V26.3208H259.829H262.312V26.7842V19.4226V18.4957V0.0351562H258.178Z" fill="#DA5346"/>
<path d="M259.829 25.0418H258.944H228.515V7.69301H247.101L249.271 5.34375H226.031V27.3964H241.465L239.513 30.72H237.788H236.949V31.5753V32.5009H252.577V31.532V30.72H251.732H250.059L248.106 27.3964H262.312V25.464V25.0418H259.829Z" fill="white"/>
</svg>
